<svg width="141" height="35" viewBox="0 0 141 35" fill="none" xmlns="http://www.w3.org/2000/svg">
<path d="M6.61633 0.383148H12.9658V2.31563H10.8578V29.7035H8.96703V2.31563H6.61633V0.383148Z" fill="white"/>
<path d="M22.0161 4.4147C22.0502 4.4147 22.0672 4.5924 22.0672 4.9478C22.0672 5.3032 22.063 5.6586 22.0545 6.01399V6.53043C21.3816 6.53043 20.7853 6.70813 20.2658 7.06353C19.7548 7.40782 19.2524 8.03532 18.7583 8.94602V29.7035H16.8547V4.71457H18.7583V7.49667C18.9798 6.51932 19.3673 5.7641 19.9209 5.23101C20.483 4.68681 21.1814 4.4147 22.0161 4.4147Z" fill="white"/>
<path d="M26.0712 4.71457H27.9875V29.7035H26.0712V4.71457ZM26.0712 0.0166626H27.9747V2.41559H26.0712V0.0166626Z" fill="white"/>
<path d="M38.9797 12.028C38.9797 10.0733 38.9158 8.85716 38.788 8.3796C38.6689 7.89093 38.524 7.47444 38.3537 7.13015C38.1834 6.78586 37.9023 6.61372 37.5105 6.61372C37.1187 6.61372 36.8291 6.64703 36.6418 6.71367C36.1818 6.88026 35.8454 7.36338 35.6324 8.16303C35.4195 8.95157 35.3131 10.251 35.3131 12.0613V21.9902C35.3131 24.1115 35.4408 25.6108 35.6963 26.4882C35.9604 27.3545 36.4544 27.7876 37.1783 27.7876C37.9023 27.7876 38.3835 27.3545 38.622 26.4882C38.8604 25.6219 38.9797 24.0948 38.9797 21.9069V12.028ZM35.3131 6.63038C35.7645 5.231 36.6119 4.53131 37.8554 4.53131C38.7242 4.53131 39.3758 4.90892 39.8101 5.66414C40.253 6.40825 40.5426 7.37449 40.6788 8.56285C40.8151 9.7401 40.8833 11.1617 40.8833 12.8276V21.7903C40.8833 21.8236 40.8833 21.8625 40.8833 21.9069C40.8833 25.05 40.5682 27.1879 39.9379 28.3207C39.3076 29.4425 38.4473 30.0033 37.3572 30.0033C36.9229 30.0033 36.514 29.8034 36.1307 29.4036C35.756 28.9927 35.4834 28.4929 35.3131 27.9043V34.1182H33.4095V4.71456H35.3131V6.63038Z" fill="white"/>
<path d="M53.5669 5.01444L53.5797 5.69747C53.5797 6.89693 54.0566 9.02932 55.0105 12.0946C55.6664 11.0284 56.1689 9.98445 56.5181 8.96268C56.8758 7.92981 57.0547 6.78032 57.0547 5.51421C57.0547 4.24811 56.9482 3.34851 56.7352 2.81541C56.5223 2.27121 56.0198 1.99911 55.2277 1.99911C54.1972 1.99911 53.6521 2.77099 53.5924 4.31475C53.5839 4.55908 53.5754 4.72012 53.5669 4.79787C53.5669 4.8645 53.5669 4.93669 53.5669 5.01444ZM59.0604 23.6228C60.2698 26.9325 61.0023 28.9593 61.2578 29.7035H59.6737C59.4522 29.0149 59.0008 27.7599 58.3195 25.9385C57.8936 27.1935 57.4549 28.0931 57.0036 28.6373C56.5521 29.1815 56.1007 29.548 55.6493 29.7368C55.2064 29.9367 54.6954 30.0366 54.1163 30.0366C52.9579 30.0366 52.021 29.5147 51.3056 28.4707C50.5901 27.4267 50.2324 25.994 50.2324 24.1726C50.2324 22.3512 50.3729 21.0018 50.654 20.1244C50.9436 19.247 51.2161 18.4751 51.4717 17.8087C51.7272 17.1424 52.5193 15.8319 53.848 13.8772C52.4256 9.72345 51.7144 6.98578 51.7144 5.66415C51.7144 1.89916 52.9324 0.0166626 55.3682 0.0166626C56.7906 0.0166626 57.7232 0.505334 58.1661 1.48267C58.6175 2.46002 58.8432 3.82608 58.8432 5.58085C58.8432 7.33563 58.5452 8.86828 57.9489 10.1788C57.3613 11.4782 56.6202 12.8498 55.726 14.2936C56.3307 16.1151 57.1441 18.4029 58.1661 21.1573C58.856 19.2692 59.614 17.6921 60.4402 16.426L61.3217 18.2086C60.5552 19.4525 59.8014 21.2572 59.0604 23.6228ZM57.374 23.4396C56.1305 20.1744 55.2149 17.7255 54.6273 16.0928C53.9119 17.3367 53.3241 18.5973 52.8642 19.8745C52.4043 21.1517 52.1701 22.6122 52.1616 24.2559C52.1616 26.7215 52.8898 27.9542 54.3462 27.9542C55.1468 27.9542 55.8197 27.3434 56.3648 26.1217C56.6373 25.4887 56.9737 24.5946 57.374 23.4396Z" fill="white"/>
<path d="M79.2307 0.383148H81.3642V29.7035H79.6396V17.1424L79.9334 5.33095L76.7267 29.0704H74.9125L71.5909 5.33095L71.8847 17.1424V29.7035H70.1472V0.383148H72.2808L75.8196 25.0055L79.2307 0.383148Z" fill="white"/>
<path d="M86.7863 4.71457H88.7029V29.7035H86.7863V4.71457ZM86.7863 0.0166626H88.6898V2.41559H86.7863V0.0166626Z" fill="white"/>
<path d="M96.0283 7.16348C96.1985 6.41937 96.5733 5.77521 97.1525 5.23101C97.7405 4.6757 98.4303 4.39804 99.2219 4.39804C100.014 4.39804 100.666 4.82563 101.177 5.68081C101.688 6.53598 101.943 7.81875 101.943 9.5291V29.7035H100.04V9.32919C100.04 8.36295 99.8696 7.66881 99.529 7.24678C99.1964 6.81364 98.7497 6.59707 98.1872 6.59707C96.7479 6.59707 96.0283 7.52443 96.0283 9.37916V29.7035H94.1248V4.71457H96.0283V7.16348Z" fill="white"/>
<path d="M112.411 12.4278C112.411 10.2843 112.284 8.78498 112.029 7.92981C111.781 7.06353 111.296 6.63039 110.572 6.63039C109.848 6.63039 109.363 7.07463 109.116 7.96313C108.869 8.84051 108.745 10.3676 108.745 12.5444V22.44C108.745 24.7279 108.882 26.1939 109.154 26.8381C109.435 27.4822 109.848 27.8043 110.393 27.8043C110.938 27.8043 111.326 27.6766 111.556 27.4211C111.794 27.1546 111.995 26.7159 112.156 26.1051C112.326 25.4831 112.411 24.2725 112.411 22.4733V12.4278ZM112.399 0H114.315V29.7035H112.399V27.8043C111.956 29.1926 111.108 29.8867 109.857 29.8867C108.434 29.8756 107.531 28.7705 107.148 26.5715C106.935 25.3609 106.829 23.7339 106.829 21.6904V12.9109C106.829 9.55686 107.135 7.30231 107.749 6.14727C108.37 4.99222 109.243 4.4147 110.367 4.4147C110.802 4.4147 111.202 4.62017 111.569 5.0311C111.944 5.43092 112.22 5.91959 112.399 6.49711V0Z" fill="white"/>
<path fill-rule="evenodd" clip-rule="evenodd" d="M134.61 8.01446L140.161 15.252C140.502 15.6962 140.502 16.4162 140.161 16.8604L134.61 24.0979C134.27 24.5421 133.718 24.5421 133.377 24.0979C133.037 23.6538 133.037 22.9337 133.377 22.4896L137.439 17.1935H122.101V14.9189H137.439L133.377 9.62281C133.037 9.17868 133.037 8.4586 133.377 8.01446C133.718 7.57033 134.27 7.57033 134.61 8.01446Z" fill="#EFC224"/>
<path d="M3.48862 14.9189H0V17.1934H3.48862V14.9189Z" fill="#EFC224"/>
</svg>
